<svg xmlns="http://www.w3.org/2000/svg" viewBox="0 0 32 32">
  <path d="M16,16 L10.0,5.5  A7.2,7.2 0 0 1 22.0,5.5  Z" fill="#2878e8" stroke="#000" stroke-width="1.2" stroke-linejoin="round"/>
  <path d="M16,16 L21.2,6.9  A7.2,7.2 0 0 1 28.6,17.7 Z" fill="#2878e8" stroke="#000" stroke-width="1.2" stroke-linejoin="round"/>
  <path d="M16,16 L25.8,17.4 A7.2,7.2 0 0 1 16.0,27.5 Z" fill="#2878e8" stroke="#000" stroke-width="1.2" stroke-linejoin="round"/>
  <path d="M16,16 L16.0,27.5 A7.2,7.2 0 0 1  6.2,17.4 Z" fill="#2878e8" stroke="#000" stroke-width="1.2" stroke-linejoin="round"/>
  <path d="M16,16 L 3.4,17.7 A7.2,7.2 0 0 1 10.8, 6.9 Z" fill="#2878e8" stroke="#000" stroke-width="1.2" stroke-linejoin="round"/>
  <circle cx="16" cy="16" r="3.2" fill="#0d0907"/>
  <circle cx="16" cy="16" r="1.6" fill="#ffffff"/>
</svg>
